<svg width="114" height="44" viewBox="0 0 114 44" fill="none" xmlns="http://www.w3.org/2000/svg">
<g clip-path="url(#clip0_3569_489)">
<path d="M114 0H0V43.561H114V0Z" fill="#000B8C"/>
<path d="M31.3896 13.8665C28.5626 13.4845 25.7175 13.2535 22.8662 13.1746C24.8231 11.1683 26.6695 9.0561 28.3969 6.84737C26.1505 8.50292 23.9929 10.2766 21.9329 12.161C21.7056 6.87159 21.1718 3.12158 21.1718 3.12158C21.1718 3.12158 20.6346 6.87159 20.4108 12.1541C18.3514 10.2726 16.1949 8.50127 13.9502 6.84737C15.67 9.0476 17.5095 11.1507 19.4603 13.147C16.6133 13.1708 13.7721 13.4102 10.9609 13.8631C13.759 14.3064 16.5863 14.5377 19.4189 14.555C17.4356 16.5081 15.6103 18.617 13.9605 20.8615C16.213 19.2978 18.3429 17.563 20.3315 15.6723C20.2575 19.9441 20.5444 24.2145 21.189 28.4376C21.8329 24.2144 22.1209 19.9442 22.0499 15.6723C24.0413 17.5612 26.1723 19.2959 28.4244 20.8615C26.7645 18.6084 24.9302 16.4904 22.9385 14.5273C25.7747 14.4436 28.6047 14.2126 31.4171 13.8354L31.3896 13.8665Z" fill="white"/>
<path d="M34.9575 9.13977V13.7996C35.3599 13.3987 35.8343 13.0783 36.3557 12.8552C36.8646 12.6404 37.4119 12.5321 37.964 12.5369C38.5597 12.5279 39.1504 12.6467 39.6968 12.8853C40.2432 13.1239 40.7325 13.4769 41.1322 13.9207C41.5721 14.3939 41.9143 14.95 42.1389 15.5568C42.3635 16.1637 42.4662 16.8093 42.4409 17.4562C42.4587 18.0975 42.3484 18.7358 42.1165 19.3336C41.8847 19.9313 41.5359 20.4763 41.0909 20.9364C40.6841 21.3786 40.1895 21.7303 39.639 21.9686C39.0886 22.207 38.4944 22.3267 37.895 22.3201C37.3721 22.3236 36.8532 22.2274 36.366 22.0365C35.8438 21.8139 35.3665 21.4974 34.9575 21.1024V22.1022H32.5469V9.13977H34.9575ZM37.468 14.6748C37.1205 14.6651 36.7746 14.727 36.4518 14.8567C36.129 14.9864 35.8361 15.1812 35.5911 15.429C35.3416 15.6906 35.1471 16 35.0192 16.3388C34.8914 16.6776 34.833 17.0388 34.8473 17.4009C34.8315 17.7693 34.8891 18.1372 35.0169 18.483C35.1446 18.8287 35.3399 19.1454 35.5911 19.4142C35.8343 19.665 36.1267 19.8622 36.4498 19.9932C36.7729 20.1242 37.1197 20.1862 37.468 20.1753C37.8116 20.1841 38.1533 20.1195 38.4703 19.986C38.7873 19.8524 39.0724 19.6528 39.307 19.4004C39.5581 19.1359 39.7542 18.8238 39.8837 18.4822C40.0132 18.1406 40.0735 17.7765 40.0612 17.4112C40.0734 17.0511 40.0145 16.6921 39.8881 16.3548C39.7616 16.0176 39.57 15.7088 39.3242 15.4463C39.0869 15.1924 38.7989 14.9919 38.479 14.8577C38.1591 14.7236 37.8145 14.6589 37.468 14.6679V14.6748Z" fill="white"/>
<path d="M44.3809 12.7598H46.7915V17.257C46.7621 17.8706 46.8248 18.4852 46.9775 19.0801C47.0862 19.4016 47.2951 19.6794 47.5733 19.8723C47.8751 20.0686 48.2299 20.1664 48.5892 20.1525C48.9535 20.1677 49.3138 20.0712 49.6223 19.8758C49.9151 19.6798 50.1345 19.3913 50.2457 19.0559C50.3769 18.4894 50.4279 17.9071 50.3972 17.3262V12.7598H52.8078V16.7139C52.8078 18.3433 52.6735 19.4572 52.4118 20.0591C52.121 20.7551 51.623 21.3436 50.986 21.7439C50.2628 22.1615 49.4364 22.3643 48.603 22.3285C47.7026 22.3689 46.8121 22.1271 46.0546 21.6366C45.3978 21.1691 44.9135 20.4965 44.6771 19.7236C44.4911 19.1585 44.3981 18.1288 44.3981 16.6343L44.3809 12.7598Z" fill="white"/>
<path d="M61.0105 14.0793L59.5228 15.5357C58.9167 14.9615 58.3691 14.6709 57.8732 14.6709C57.6436 14.6545 57.415 14.714 57.2223 14.8404C57.1514 14.8839 57.0927 14.9448 57.0517 15.0175C57.0108 15.0901 56.9889 15.172 56.9882 15.2555C56.9915 15.3864 57.0459 15.5106 57.1397 15.6015C57.3525 15.7807 57.5919 15.9254 57.8491 16.0304L58.7307 16.4559C59.4615 16.7572 60.115 17.2208 60.642 17.812C60.9891 18.28 61.1709 18.851 61.1586 19.4345C61.1669 19.8285 61.0874 20.2194 60.9259 20.5785C60.7645 20.9376 60.5251 21.256 60.2253 21.5102C59.5229 22.0876 58.6315 22.3811 57.7251 22.3335C57.0834 22.3542 56.4461 22.2195 55.8671 21.9407C55.2881 21.6619 54.7844 21.2473 54.3984 20.7318L55.8655 19.1647C56.1462 19.4793 56.481 19.7406 56.8538 19.9361C57.1585 20.1131 57.501 20.2139 57.8526 20.2302C58.125 20.2457 58.3947 20.1676 58.6171 20.0088C58.7022 19.9525 58.7728 19.8767 58.8231 19.7877C58.8734 19.6987 58.9018 19.599 58.9063 19.4968C58.9063 19.1508 58.5619 18.7876 57.8732 18.4589L57.0674 18.0646C55.5177 17.3104 54.7497 16.3591 54.7497 15.2209C54.7469 14.8611 54.824 14.5052 54.9753 14.1791C55.1266 13.853 55.3484 13.5648 55.6244 13.3356C56.2433 12.8008 57.0403 12.5203 57.856 12.5503C58.4636 12.5477 59.0634 12.6863 59.6089 12.955C60.1558 13.2168 60.6354 13.6015 61.0105 14.0793Z" fill="white"/>
<path d="M64.0317 8.91519C64.2323 8.91232 64.4314 8.95004 64.6172 9.02612C64.803 9.10219 64.9716 9.21506 65.113 9.358C65.2561 9.49889 65.3693 9.66751 65.4457 9.85363C65.5221 10.0397 65.56 10.2395 65.5573 10.4408C65.5601 10.6395 65.5221 10.8367 65.4457 11.02C65.3693 11.2034 65.256 11.3689 65.113 11.5063C64.9745 11.6472 64.8093 11.7587 64.6271 11.8342C64.4449 11.9096 64.2495 11.9476 64.0524 11.9456C63.8502 11.9493 63.6495 11.9109 63.4628 11.8329C63.2762 11.7549 63.1075 11.639 62.9675 11.4925C62.8223 11.3516 62.7076 11.182 62.6306 10.9945C62.5535 10.807 62.5158 10.6056 62.5198 10.4027C62.5194 10.2084 62.5586 10.0161 62.635 9.8376C62.7114 9.6591 62.8234 9.49823 62.9641 9.36492C63.1027 9.22162 63.2688 9.10792 63.4522 9.03064C63.6357 8.95336 63.8328 8.91409 64.0317 8.91519ZM62.816 12.7621H65.2267V22.1025H62.816V12.7621Z" fill="white"/>
<path d="M67.3682 12.7593H69.7789V13.7244C70.2179 13.3419 70.7127 13.0293 71.2459 12.7973C71.6748 12.6225 72.1331 12.532 72.5959 12.5309C73.0393 12.5238 73.4796 12.6062 73.8908 12.7732C74.3019 12.9401 74.6755 13.1883 74.9894 13.503C75.5404 14.0565 75.8193 14.8626 75.8193 15.9246V22.0997H73.4087V18.0072C73.4372 17.2649 73.3876 16.5216 73.2606 15.7897C73.1835 15.4591 72.9979 15.1642 72.7337 14.9525C72.4661 14.7544 72.1395 14.6532 71.8073 14.6654C71.3536 14.6554 70.9142 14.8257 70.5848 15.1393C70.2216 15.4975 69.9734 15.9565 69.8719 16.4574C69.7823 17.0827 69.7488 17.7149 69.772 18.3462V22.0997H67.3613L67.3682 12.7593Z" fill="white"/>
<path d="M87.6554 18.0915H79.9896C80.0769 18.7115 80.3912 19.2764 80.8711 19.6759C81.3986 20.0777 82.0486 20.2831 82.7101 20.2571C83.5639 20.2697 84.3876 19.9412 85.0002 19.3438L87.0045 20.2675C86.5471 20.9308 85.9282 21.4656 85.2069 21.8208C84.4251 22.1699 83.5758 22.34 82.7205 22.3189C82.0518 22.3457 81.3846 22.2369 80.7586 21.9992C80.1327 21.7615 79.5607 21.3996 79.0769 20.9351C78.6181 20.4868 78.2565 19.9482 78.0147 19.3529C77.7729 18.7575 77.6562 18.1185 77.6718 17.4757C77.6535 16.8216 77.7684 16.1706 78.0094 15.5626C78.2504 14.9547 78.6125 14.4026 79.0735 13.9402C79.5337 13.4756 80.0837 13.1105 80.6895 12.8672C81.2953 12.6238 81.9442 12.5075 82.5965 12.5253C83.2708 12.4992 83.9434 12.6112 84.5734 12.8545C85.2033 13.0977 85.7774 13.4671 86.2607 13.9402C86.7338 14.4303 87.1022 15.0124 87.3432 15.6507C87.5842 16.2891 87.6928 16.9701 87.6623 17.6522L87.6554 18.0915ZM85.2447 16.2615C85.0908 15.7473 84.76 15.3047 84.3115 15.0126C83.8386 14.687 83.2764 14.5177 82.7032 14.5283C82.0781 14.5152 81.4651 14.7031 80.9538 15.0645C80.5673 15.3847 80.2657 15.7958 80.0757 16.2615H85.2447Z" fill="white"/>
<path d="M95.444 14.0774L93.9631 15.5304C93.3604 14.9561 92.8129 14.6655 92.3204 14.6655C92.096 14.6528 91.8733 14.7109 91.6834 14.8316C91.6133 14.8758 91.5554 14.9369 91.515 15.0095C91.4747 15.082 91.4532 15.1636 91.4526 15.2467C91.4564 15.3767 91.5094 15.5004 91.6007 15.5927C91.8166 15.7729 92.0595 15.9177 92.3204 16.0216L93.1986 16.4471C93.9281 16.7473 94.5795 17.2111 95.103 17.8032C95.4528 18.27 95.636 18.8416 95.623 19.4257C95.6314 19.8197 95.5519 20.2105 95.3904 20.5697C95.2289 20.9288 94.9895 21.2471 94.6898 21.5013C93.9877 22.0793 93.096 22.373 92.1896 22.3247C91.5474 22.3448 90.9099 22.2098 90.3304 21.9311C89.7509 21.6524 89.2464 21.2381 88.8594 20.723L90.3333 19.1559C90.6094 19.4726 90.9424 19.7344 91.3148 19.9273C91.6221 20.104 91.9668 20.2047 92.3204 20.2214C92.5918 20.2364 92.8601 20.1583 93.0815 20C93.1666 19.9437 93.2372 19.8679 93.2875 19.7789C93.3377 19.6899 93.3663 19.5902 93.3708 19.488C93.3708 19.142 93.0264 18.7788 92.3376 18.4501L91.5352 18.0558C89.9855 17.3016 89.2141 16.3503 89.2141 15.2121C89.2135 14.8527 89.2915 14.4975 89.4427 14.1717C89.5939 13.8459 89.8144 13.5574 90.0888 13.3267C90.7091 12.7921 91.5071 12.5117 92.3239 12.5415C92.9314 12.5384 93.5315 12.677 94.0768 12.9462C94.6119 13.2144 95.0794 13.6012 95.444 14.0774Z" fill="white"/>
<path d="M103.368 14.0796L101.877 15.536C101.275 14.9617 100.724 14.6711 100.231 14.6711C100.002 14.6562 99.7735 14.7156 99.5802 14.8406C99.5106 14.885 99.4532 14.9463 99.4135 15.0189C99.3738 15.0914 99.3529 15.1729 99.353 15.2558C99.3537 15.3858 99.4057 15.5102 99.4976 15.6017C99.7122 15.7801 99.9526 15.9247 100.21 16.0307L101.095 16.4562C101.825 16.7563 102.476 17.2202 103 17.8123C103.351 18.2783 103.534 18.8504 103.52 19.4347C103.528 19.8291 103.449 20.2203 103.286 20.5795C103.124 20.9387 102.884 21.2569 102.583 21.5104C101.882 22.0873 100.992 22.3808 100.086 22.3337C99.4446 22.355 98.8071 22.2206 98.228 21.9417C97.6489 21.6629 97.1453 21.248 96.7598 20.732L98.2268 19.1649C98.5056 19.4802 98.8393 19.7417 99.2117 19.9364C99.5179 20.1126 99.8614 20.2134 100.214 20.2304C100.486 20.2459 100.756 20.1679 100.978 20.009C101.065 19.9538 101.136 19.8783 101.186 19.7891C101.237 19.6998 101.265 19.5996 101.268 19.497C101.268 19.1511 100.923 18.7878 100.235 18.4592L99.4253 18.0648C97.879 17.3107 97.111 16.3593 97.111 15.2212C97.1082 14.8614 97.1853 14.5055 97.3366 14.1793C97.4879 13.8532 97.7097 13.565 97.9858 13.3358C98.6038 12.7995 99.4013 12.5189 100.217 12.5505C100.824 12.5475 101.423 12.6861 101.967 12.9553C102.514 13.2164 102.994 13.6012 103.368 14.0796Z" fill="white"/>
<path d="M11.3144 29.9254H13.9283V40.1722H11.3144V39.0929C10.8671 39.53 10.3443 39.8817 9.77161 40.1307C9.23913 40.3475 8.66905 40.4557 8.09452 40.449C7.43526 40.4523 6.78261 40.3167 6.17874 40.051C5.57488 39.7852 5.03316 39.3952 4.58868 38.9061C4.10028 38.3983 3.71776 37.7978 3.46348 37.1396C3.20919 36.4814 3.08832 35.7788 3.10791 35.073C3.05017 33.635 3.56292 32.2328 4.53361 31.1743C4.97385 30.6879 5.51186 30.3011 6.11207 30.0393C6.71228 29.7775 7.36103 29.6467 8.01532 29.6556C8.62213 29.6543 9.22334 29.7718 9.7854 30.0015C10.3544 30.248 10.872 30.6001 11.311 31.0393L11.3144 29.9254ZM8.55939 32.0011C8.18207 31.9917 7.80704 32.0624 7.45873 32.2084C7.11042 32.3545 6.79669 32.5726 6.53792 32.8486C6.26838 33.1398 6.05875 33.4817 5.92105 33.8545C5.78335 34.2273 5.72027 34.6238 5.73549 35.0211C5.72072 35.4238 5.78519 35.8254 5.92525 36.2029C6.06531 36.5805 6.27823 36.9266 6.55171 37.2213C6.80807 37.4995 7.12002 37.72 7.46723 37.8685C7.81443 38.0169 8.189 38.0899 8.56628 38.0827C8.94719 38.0946 9.32628 38.0256 9.67879 37.8801C10.0313 37.7346 10.3493 37.516 10.6119 37.2386C10.8892 36.9407 11.1046 36.5902 11.2453 36.2077C11.3861 35.8251 11.4493 35.4182 11.4315 35.0108C11.4483 34.6107 11.3843 34.2114 11.2435 33.8369C11.1026 33.4623 10.8878 33.1203 10.6119 32.8313C10.3437 32.5579 10.0218 32.3435 9.66668 32.2017C9.31155 32.06 8.93093 31.994 8.54904 32.008L8.55939 32.0011Z" fill="white"/>
<path d="M16.5859 29.9241H19.248V34.8572C19.2127 35.5337 19.2813 36.2116 19.4512 36.8671C19.5719 37.22 19.8009 37.5253 20.1055 37.7389C20.4339 37.9532 20.8195 38.0618 21.2109 38.0502C21.6076 38.0606 21.9984 37.9522 22.3336 37.7389C22.6537 37.523 22.8954 37.2086 23.0224 36.8429C23.1699 36.2226 23.2267 35.5839 23.1911 34.9471V29.9241H25.8015V34.2691C25.8015 36.0576 25.6603 37.2788 25.3711 37.943C25.0545 38.7074 24.5093 39.3541 23.811 39.7938C23.0151 40.2519 22.107 40.4761 21.1903 40.4407C20.2062 40.4861 19.2324 40.2225 18.4043 39.6865C17.6869 39.1729 17.1598 38.4342 16.9062 37.5867C16.6996 36.9605 16.5963 35.8362 16.5963 34.1895L16.5859 29.9241Z" fill="white"/>
<path d="M28.7063 26.1456H31.3202V29.9233H32.8699V32.1339H31.3202V40.1701H28.7063V32.1339H27.3633V29.9233H28.7063V26.1456Z" fill="white"/>
<path d="M39.2086 29.6552C40.1838 29.6513 41.1434 29.9004 41.9947 30.3782C42.838 30.8383 43.5423 31.5183 44.0334 32.3466C44.5173 33.1587 44.771 34.0882 44.7669 35.0346C44.7701 35.9912 44.5154 36.9308 44.0299 37.7537C43.5528 38.5851 42.857 39.2685 42.0188 39.729C41.1605 40.2068 40.1933 40.4523 39.2121 40.4417C38.4986 40.4537 37.7902 40.3207 37.1291 40.0508C36.4681 39.781 35.8682 39.3797 35.3654 38.8711C34.8533 38.3813 34.4476 37.7904 34.1738 37.1355C33.9 36.4806 33.764 35.776 33.7743 35.0657C33.7605 34.3057 33.915 33.5521 34.2264 32.8593C34.5379 32.1665 34.9986 31.5519 35.5754 31.0597C36.568 30.15 37.865 29.6486 39.2086 29.6552ZM39.2534 32.0768C38.8728 32.0666 38.4943 32.1356 38.1416 32.2797C37.7889 32.4238 37.4697 32.6398 37.2043 32.914C36.9325 33.1973 36.72 33.5325 36.5793 33.8997C36.4385 34.2669 36.3724 34.6586 36.3847 35.0519C36.3682 35.4503 36.4316 35.8479 36.5712 36.2212C36.7108 36.5944 36.9238 36.9356 37.1975 37.2244C37.4612 37.4999 37.7795 37.7167 38.1318 37.8609C38.4842 38.0051 38.8628 38.0735 39.2431 38.0616C39.6266 38.0723 40.0082 38.0032 40.3638 37.8585C40.7194 37.7138 41.0414 37.4968 41.3094 37.221C41.5838 36.9331 41.7978 36.5927 41.9386 36.2201C42.0794 35.8475 42.1441 35.4502 42.1289 35.0519C42.1446 34.6576 42.0811 34.2641 41.942 33.895C41.803 33.5259 41.5914 33.1887 41.3197 32.9036C41.0523 32.6272 40.7303 32.41 40.3745 32.2658C40.0187 32.1217 39.6369 32.0538 39.2534 32.0664V32.0768Z" fill="white"/>
<path d="M46.8917 29.9235H49.509V31.0962C49.9284 30.6318 50.4398 30.2606 51.0104 30.0065C51.5802 29.7661 52.1937 29.6483 52.8115 29.6606C53.4338 29.6514 54.0465 29.8155 54.5817 30.1345C55.1259 30.4672 55.5661 30.9466 55.8524 31.5183C56.2467 30.9376 56.7763 30.4625 57.3952 30.1345C58.0105 29.8162 58.6938 29.6535 59.3858 29.6606C60.0756 29.6444 60.7567 29.8179 61.3556 30.1622C61.8887 30.4681 62.3145 30.9321 62.5747 31.4906C62.8227 32.0372 62.9432 32.9263 62.9432 34.1578V40.1703H60.3225V34.9812C60.3225 33.8188 60.1778 33.03 59.8782 32.6184C59.7212 32.4129 59.5162 32.2495 59.2813 32.1427C59.0465 32.0359 58.789 31.989 58.5317 32.0061C58.0955 32.0005 57.6684 32.131 57.3091 32.3797C56.9444 32.6381 56.6639 32.9992 56.5033 33.4175C56.2954 34.1075 56.208 34.8285 56.245 35.5485V40.1703H53.6243V35.2129C53.6531 34.5421 53.5834 33.8708 53.4176 33.2203C53.3101 32.857 53.0907 32.5372 52.7908 32.307C52.4955 32.1003 52.1416 31.9948 51.7818 32.0061C51.35 32.0013 50.9279 32.1345 50.5765 32.3866C50.2069 32.6541 49.9252 33.0263 49.7673 33.4556C49.5557 34.1568 49.466 34.8893 49.5021 35.6212V40.1703H46.8848L46.8917 29.9235Z" fill="white"/>
<path d="M73.1285 29.9229H75.7389V40.1697H73.1285V39.0903C72.6817 39.5282 72.1588 39.88 71.5857 40.1282C71.053 40.3444 70.483 40.4526 69.9086 40.4464C69.2492 40.4504 68.5963 40.3151 67.9924 40.0493C67.3884 39.7835 66.8468 39.3932 66.4027 38.9035C65.9137 38.3963 65.5308 37.7958 65.2764 37.1375C65.0221 36.4791 64.9016 35.7763 64.922 35.0705C64.867 33.6344 65.3809 32.2349 66.3511 31.1786C66.7907 30.6924 67.3281 30.3056 67.9277 30.0438C68.5274 29.782 69.1756 29.6511 69.8294 29.66C70.4373 29.6586 71.0396 29.7761 71.6029 30.0059C72.1719 30.2524 72.6895 30.6045 73.1285 31.0437V29.9229ZM70.3734 31.9985C69.9956 31.9892 69.6201 32.0598 69.2712 32.2058C68.9223 32.3518 68.6079 32.57 68.3485 32.8461C67.8071 33.4361 67.5188 34.2166 67.5461 35.0186C67.5191 35.832 67.8138 36.623 68.3658 37.2188C68.6228 37.497 68.9354 37.7176 69.2831 37.8661C69.6309 38.0145 70.006 38.0875 70.3838 38.0802C70.7645 38.091 71.1433 38.0214 71.4957 37.876C71.8481 37.7307 72.1661 37.5126 72.4294 37.2361C72.7054 36.9375 72.9198 36.5868 73.0599 36.2044C73.2 35.8219 73.2631 35.4154 73.2456 35.0082C73.2622 34.6085 73.1985 34.2095 73.0583 33.8351C72.918 33.4606 72.7042 33.1184 72.4294 32.8288C72.1608 32.5549 71.8383 32.3402 71.4826 32.1985C71.1268 32.0567 70.7456 31.991 70.3631 32.0054L70.3734 31.9985Z" fill="white"/>
<path d="M78.7082 26.1456H81.322V29.9233H82.8752V32.1339H81.3324V40.1701H78.7185V32.1339H77.3789V29.9233H78.7185L78.7082 26.1456Z" fill="white"/>
<path d="M85.3156 25.7137C85.535 25.7113 85.7525 25.7532 85.9555 25.837C86.1584 25.9208 86.3425 26.0448 86.4968 26.2015C86.6557 26.3539 86.7815 26.5376 86.8663 26.7413C86.951 26.9449 86.9929 27.1639 86.9892 27.3846C86.992 27.6026 86.9496 27.8188 86.8649 28.0195C86.7801 28.2202 86.6547 28.401 86.4968 28.5504C86.3459 28.7067 86.1648 28.8303 85.9646 28.9136C85.7645 28.9969 85.5495 29.0381 85.3328 29.0348C85.111 29.0376 84.8909 28.9956 84.6856 28.9112C84.4803 28.8268 84.2939 28.7018 84.1377 28.5435C83.9797 28.3878 83.8548 28.2013 83.7707 27.9955C83.6867 27.7898 83.6452 27.569 83.6487 27.3466C83.6445 27.1307 83.6858 26.9164 83.7701 26.7178C83.8544 26.5193 83.9797 26.3409 84.1377 26.1946C84.2917 26.0389 84.4755 25.916 84.6778 25.8334C84.8802 25.7508 85.0971 25.7101 85.3156 25.7137ZM84.0104 29.9238H86.6276V40.1706H84.0104V29.9238Z" fill="white"/>
<path d="M93.9336 29.6553C94.9089 29.6502 95.8688 29.8993 96.7196 30.3783C97.5639 30.8384 98.2694 31.5183 98.7618 32.3468C99.2435 33.1597 99.4969 34.0886 99.4953 35.0347C99.4987 35.9918 99.2428 36.9318 98.7549 37.7538C98.279 38.585 97.5843 39.2684 96.7471 39.7291C95.8899 40.2064 94.924 40.452 93.9439 40.4418C93.2299 40.454 92.5208 40.3212 91.8591 40.0514C91.1975 39.7815 90.597 39.3801 90.0937 38.8712C89.5805 38.3821 89.1739 37.7914 88.8995 37.1364C88.625 36.4814 88.4888 35.7764 88.4993 35.0659C88.4828 34.3052 88.6345 33.5504 88.9436 32.8559C89.2527 32.1613 89.7114 31.5444 90.2866 31.0495C91.2853 30.142 92.5869 29.6444 93.9336 29.6553ZM93.9818 32.0769C93.6012 32.0667 93.2226 32.1358 92.8699 32.2799C92.5172 32.4239 92.1981 32.6399 91.9327 32.9141C91.6608 33.1972 91.4483 33.5323 91.3081 33.8997C91.1679 34.267 91.1027 34.6589 91.1165 35.052C91.0988 35.4499 91.1611 35.8473 91.2995 36.2206C91.438 36.5938 91.6498 36.9352 91.9224 37.2245C92.1866 37.5003 92.5055 37.7173 92.8585 37.8615C93.2114 38.0057 93.5906 38.0739 93.9714 38.0617C94.3551 38.0739 94.7372 38.0055 95.093 37.8607C95.4488 37.7159 95.7706 37.4981 96.0377 37.2211C96.3128 36.9335 96.5274 36.5933 96.6688 36.2206C96.8102 35.848 96.8755 35.4505 96.8608 35.052C96.8764 34.658 96.8131 34.2648 96.6747 33.8958C96.5362 33.5268 96.3255 33.1894 96.0549 32.9037C95.7857 32.6278 95.4625 32.411 95.1057 32.2669C94.7489 32.1228 94.3662 32.0546 93.9818 32.0665V32.0769Z" fill="white"/>
<path d="M101.602 29.9256H104.219V30.9634C104.704 30.5372 105.251 30.1873 105.841 29.9256C106.316 29.7367 106.821 29.6393 107.332 29.6384C107.822 29.6278 108.308 29.7167 108.763 29.8998C109.217 30.0829 109.63 30.3564 109.977 30.7039C110.585 31.3059 110.891 32.1972 110.893 33.3781V40.1723H108.303V35.6751C108.337 34.8571 108.279 34.0378 108.131 33.2328C108.043 32.8687 107.834 32.5455 107.539 32.316C107.239 32.0979 106.875 31.987 106.506 32.0012C105.997 31.9906 105.503 32.1778 105.128 32.5236C104.723 32.9144 104.447 33.4201 104.336 33.9731C104.234 34.6599 104.195 35.3547 104.219 36.0487V40.1654H101.602V29.9256Z" fill="white"/>
</g>
<defs>
<clipPath id="clip0_3569_489">
<rect width="114" height="43.561" fill="white"/>
</clipPath>
</defs>
</svg>
