<svg width="42" height="41" viewBox="0 0 42 41" fill="none" xmlns="http://www.w3.org/2000/svg">
<path d="M37.3753 14.4578H35.8233L33.6281 11.2589C33.5668 11.1697 33.4832 11.0977 33.3861 11.0502L29.0708 8.94329L25.6243 5.24456C25.4536 5.06194 25.1907 4.99637 24.9557 5.08094L18.8663 7.23906L16.605 5.20565C16.4695 5.08369 16.2872 5.02609 16.1074 5.04968L13.2396 5.40941C13.0331 5.43515 12.8529 5.5617 12.7586 5.74708L11.3009 8.60838C11.1437 8.91725 11.2666 9.29506 11.5752 9.45255C11.8847 9.61005 12.2622 9.48687 12.4193 9.17831L13.7259 6.61331L15.979 6.3308L18.0255 8.17082L17.2919 11.1813L15.2712 14.4578H7.54418L8.65321 11.6137L9.52373 11.0729C9.8182 10.8899 9.90828 10.5029 9.72566 10.2085C9.54212 9.914 9.15542 9.8233 8.86127 10.0065C8.60951 10.1997 7.61436 10.6691 7.55992 10.9628C7.55992 10.9629 6.19715 14.4578 6.19715 14.4578H4.74336C4.05117 14.4578 3.48829 15.0207 3.48829 15.7129V17.5955C3.48572 18.3298 4.12071 18.9014 4.8482 18.8506C4.8482 18.8506 6.96023 30.352 6.96023 30.352C5.73883 33.1386 7.95372 36.4909 11.0188 36.4216C13.2273 36.4216 15.0553 34.7816 15.3614 32.6564H26.7572C27.0634 34.7816 28.8913 36.4216 31.0999 36.4216C34.162 36.4868 36.383 33.1433 35.1584 30.352C35.1584 30.3521 37.2704 18.8506 37.2704 18.8506C37.9961 18.9011 38.6345 18.33 38.6303 17.5955C38.6303 17.5955 38.6303 15.7129 38.6303 15.7129C38.6303 15.0207 38.0675 14.4578 37.3753 14.4578ZM18.4122 11.7559C18.4468 11.7001 18.4723 11.6388 18.4879 11.5751L19.2536 8.43311L24.9869 6.40128L27.5628 9.1656L25.3458 9.89195C25.2373 9.92749 25.1408 9.99184 25.0663 10.0783L23.609 11.7669C23.3826 12.0292 23.4117 12.4254 23.674 12.6518C23.9363 12.8783 24.3324 12.8486 24.5589 12.5869L25.9025 11.0303L28.6446 10.1319L32.6868 12.1055L34.3009 14.4578H16.7457L18.4122 11.7559ZM11.0187 35.1666C9.28871 35.1666 7.88105 33.7589 7.88105 32.0289C8.02852 27.8762 14.0096 27.8772 14.1564 32.0289C14.1564 33.7589 12.7487 35.1666 11.0187 35.1666ZM31.0999 35.1666C29.3699 35.1666 27.9622 33.7589 27.9622 32.0289C28.1097 27.8762 34.0907 27.8772 34.2376 32.0289C34.2376 33.7589 32.8299 35.1666 31.0999 35.1666ZM37.3753 17.5955H33.6101C33.2635 17.5955 32.9825 17.8765 32.9825 18.2231C32.9825 18.5696 33.2635 18.8506 33.6101 18.8506H35.9946L34.1533 28.8775C31.6813 26.3737 27.1907 27.9235 26.7573 31.4014C26.7572 31.4013 15.3614 31.4013 15.3614 31.4013C15.0553 29.2761 13.2273 27.6361 11.0187 27.6361C9.83252 27.6361 8.7565 28.1107 7.96534 28.8775L6.12406 18.8506H30.4724C31.2912 18.8395 31.3017 17.6092 30.4723 17.5955H4.74336V15.7129H6.62768H37.3753L37.3753 17.5955Z" fill="white"/>
<path d="M11.019 31.4014C10.1941 31.4154 10.1942 32.6425 11.019 32.6564C11.8438 32.6424 11.8437 31.4152 11.019 31.4014Z" fill="white"/>
<path d="M31.101 31.4014C30.2762 31.4154 30.2763 32.6425 31.101 32.6564C31.9259 32.6424 31.9257 31.4152 31.101 31.4014Z" fill="white"/>
</svg>
