<svg width="41" height="41" viewBox="0 0 41 41" fill="none" xmlns="http://www.w3.org/2000/svg">
<g clip-path="url(#clip0_1089_6144)">
<mask id="mask0_1089_6144" style="mask-type:luminance" maskUnits="userSpaceOnUse" x="0" y="0" width="41" height="41">
<path d="M40.834 0.759525L0.671638 0.759522L0.671635 40.9219L40.834 40.9219L40.834 0.759525Z" fill="white"/>
</mask>
<g mask="url(#mask0_1089_6144)">
<path d="M25.5898 37.4249C23.46 39.2389 20.7043 40.3335 17.6939 40.3335C10.945 40.3335 5.47378 34.8353 5.47378 28.0532C5.47378 21.2711 13.1853 12.7182 17.6939 5.58969C18.6552 7.10958 19.7622 8.69427 20.9088 10.3127M29.293 24.4392C29.6887 25.6849 29.9141 26.895 29.9141 28.0532C29.9141 31.3858 28.5924 34.408 26.4478 36.6204" stroke="white" stroke-width="1.17663" stroke-miterlimit="22.926"/>
<path d="M8.41484 26.8765L8.41484 25.6999M17.6934 37.9622C12.4967 37.6555 8.41484 33.315 8.41484 28.0531" stroke="white" stroke-width="1.17663" stroke-miterlimit="22.926"/>
<path d="M33.4816 20.7461C32.215 21.8317 30.5723 22.4874 28.7771 22.4874C24.7707 22.4874 21.5229 19.2235 21.5229 15.1976C21.5229 11.1715 26.1006 6.09428 28.7771 1.86273C31.4535 6.09428 36.0313 11.1715 36.0313 15.1976C36.0313 16.9953 35.3834 18.6408 34.3098 19.9118" stroke="white" stroke-width="1.17663" stroke-miterlimit="22.926"/>
<path d="M24.464 14.6092L24.464 13.4325M28.5527 20.1171C26.3017 19.8941 24.464 18.2119 24.464 15.7858" stroke="white" stroke-width="1.17663" stroke-miterlimit="22.926"/>
</g>
</g>
<defs>
<clipPath id="clip0_1089_6144">
<rect width="40.1624" height="40.1624" fill="white" transform="matrix(-1 -8.74228e-08 -8.74228e-08 1 40.834 0.759521)"/>
</clipPath>
</defs>
</svg>
