<svg width="28" height="41" viewBox="0 0 28 41" fill="none" xmlns="http://www.w3.org/2000/svg">
<path d="M24.9141 11.5574C24.7848 11.2222 24.4448 11.0171 24.0883 11.0578C23.7314 11.0987 23.4471 11.3757 23.3969 11.7314C23.0669 14.071 21.7531 19.9608 19.3387 22.5451C19.2467 20.9808 19.0137 18.3958 18.4234 15.4293C17.8656 12.6262 17.1022 10.0688 16.1544 7.82831C14.9563 4.99632 13.4565 2.66039 11.6965 0.8854C11.4858 0.672822 11.173 0.598067 10.8889 0.691726C10.6048 0.785543 10.3982 1.03201 10.3555 1.32821C10.2808 1.84537 10.1559 2.70392 10.1384 2.8066C9.53569 6.34787 8.53986 9.5658 7.17881 12.371C6.98859 12.7629 7.15222 13.2349 7.5442 13.4252C7.93602 13.6153 8.40816 13.4517 8.59838 13.0598C10.0049 10.1606 11.0374 6.85178 11.6677 3.22321C14.6167 6.90089 16.1178 11.9409 16.8699 15.7081C17.7911 20.3217 17.8204 24.0915 17.8206 24.1288C17.8232 24.7149 18.4728 25.0993 18.988 24.8175C20.8994 23.7723 22.4872 21.2651 23.7074 17.3656C23.9919 16.4563 24.2217 15.5803 24.4029 14.8079C25.9423 19.4814 26.5755 23.6316 26.2864 27.1739C26.0005 30.6767 24.8264 33.5209 22.7966 35.6276C22.196 36.251 21.539 36.7846 20.8466 37.2378C21.5765 35.5545 21.7552 32.9921 20.2117 29.1576C20.0786 28.8269 19.7292 28.6235 19.376 28.6703C19.0342 28.7156 18.7551 28.9874 18.7009 29.328C18.5969 29.9801 18.3112 31.1106 17.8865 32.0173C17.6293 30.0107 16.9135 26.9632 14.9234 25.0788C14.4837 24.6624 13.7345 24.8971 13.6091 25.4881C13.6034 25.5153 13.0211 28.229 12.0234 30.0262C11.8238 30.3857 11.5513 30.7928 11.2627 31.224C10.8035 31.91 10.3287 32.6194 10.0393 33.2972C9.48211 34.6019 9.44265 35.8971 9.92194 37.1467C10.1568 37.7591 10.531 38.3356 11.006 38.8373C10.8669 38.797 10.7295 38.7549 10.5958 38.7089C9.66041 38.3873 8.76248 37.9754 7.927 37.4844C4.8945 35.7026 2.85454 32.9136 2.1826 29.6313C1.69822 27.2651 1.95222 24.7574 2.89784 22.5702C3.46364 21.2616 4.21472 20.077 4.87481 19.0909C5.1172 18.7289 5.02017 18.2389 4.65808 17.9965C4.29622 17.7541 3.80604 17.8512 3.56365 18.2133C2.86395 19.2584 2.06564 20.5191 1.44956 21.944C0.376786 24.4252 0.0881194 27.2677 0.636743 29.9477C1.39944 33.6737 3.70461 36.8335 7.12751 38.8449C8.05368 39.389 9.04793 39.8453 10.0828 40.2011C11.2663 40.608 12.6216 40.8144 14.0185 40.8144C15.0091 40.8143 16.0026 40.7119 16.9722 40.5081C19.6902 39.9367 22.0971 38.6277 23.9328 36.7223C26.2217 34.3466 27.5426 31.1772 27.8589 27.3022C28.2219 22.8571 27.2311 17.5598 24.9141 11.5574ZM11.4905 33.9167C11.722 33.3745 12.1552 32.7272 12.5741 32.1015C12.8814 31.6423 13.1716 31.2088 13.403 30.7918C14.0056 29.7064 14.4616 28.3706 14.7569 27.3556C16.4439 30.0167 16.4525 33.9685 16.4523 34.0137C16.4494 34.5961 17.0876 34.9872 17.6054 34.7176C18.5014 34.2514 19.1209 33.2119 19.5351 32.1856C20.0999 34.6103 19.8077 36.509 18.6598 37.7499C17.9748 38.4905 17.0459 38.9079 16.1388 39.0627C15.631 39.1484 15.1067 39.1609 14.5984 39.0726C14.1103 38.9877 13.6355 38.7976 13.2019 38.561C12.3601 38.1016 11.7015 37.3801 11.3952 36.5815C11.0633 35.716 11.0944 34.8443 11.4905 33.9167Z" fill="white"/>
</svg>
