<svg width="17" height="16" viewBox="0 0 17 16" fill="none" xmlns="http://www.w3.org/2000/svg">
<path d="M12.7933 15.5H3.2464C2.82881 15.5 2.42832 15.3341 2.13304 15.0388C1.83776 14.7436 1.67188 14.3431 1.67188 13.9255L1.67188 6.39399C1.67188 5.9764 1.83776 5.57591 2.13304 5.28063C2.42832 4.98535 2.82881 4.81946 3.2464 4.81946H12.7933C13.2109 4.81946 13.6114 4.98535 13.9066 5.28063C14.2019 5.57591 14.3678 5.9764 14.3678 6.39399V13.9255C14.3678 14.3431 14.2019 14.7436 13.9066 15.0388C13.6114 15.3341 13.2109 15.5 12.7933 15.5ZM3.2464 5.86914C3.10721 5.86914 2.97371 5.92444 2.87528 6.02287C2.77686 6.12129 2.72156 6.25479 2.72156 6.39399V13.9255C2.72156 14.0647 2.77686 14.1982 2.87528 14.2966C2.97371 14.395 3.10721 14.4503 3.2464 14.4503H12.7933C12.9325 14.4503 13.066 14.395 13.1644 14.2966C13.2628 14.1982 13.3181 14.0647 13.3181 13.9255V6.39399C13.3181 6.25479 13.2628 6.12129 13.1644 6.02287C13.066 5.92444 12.9325 5.86914 12.7933 5.86914H3.2464Z" fill="white"/>
<path d="M11.644 5.44927C11.5048 5.44927 11.3713 5.39397 11.2729 5.29554C11.1745 5.19712 11.1192 5.06362 11.1192 4.92442V3.50735C11.1178 2.98766 10.9104 2.48973 10.5424 2.12275C10.1744 1.75577 9.67595 1.54968 9.15626 1.54969H6.87844C6.35966 1.55107 5.86253 1.75777 5.4957 2.1246C5.12886 2.49143 4.92216 2.98857 4.92078 3.50735V4.92442C4.92078 5.06362 4.86548 5.19712 4.76706 5.29554C4.66863 5.39397 4.53513 5.44927 4.39594 5.44927C4.25674 5.44927 4.12324 5.39397 4.02482 5.29554C3.92639 5.19712 3.87109 5.06362 3.87109 4.92442V3.50735C3.87248 2.71018 4.18977 1.94605 4.75346 1.38236C5.31714 0.818678 6.08127 0.501388 6.87844 0.5L9.15626 0.5C9.95434 0.499999 10.7198 0.816676 11.2846 1.38051C11.8495 1.94435 12.1675 2.70927 12.1689 3.50735V4.92442C12.1689 5.06362 12.1136 5.19712 12.0151 5.29554C11.9167 5.39397 11.7832 5.44927 11.644 5.44927ZM8.06983 12.7446C8.00024 12.7446 7.93349 12.7169 7.88427 12.6677C7.83506 12.6185 7.80741 12.5518 7.80741 12.4822V10.3828C7.80741 10.3132 7.83506 10.2464 7.88427 10.1972C7.93349 10.148 8.00024 10.1204 8.06983 10.1204C8.13943 10.1204 8.20618 10.148 8.25539 10.1972C8.30461 10.2464 8.33226 10.3132 8.33226 10.3828V12.4822C8.33226 12.5518 8.30461 12.6185 8.25539 12.6677C8.20618 12.7169 8.13943 12.7446 8.06983 12.7446Z" fill="white"/>
<path d="M8.03211 10.4353C7.8245 10.4353 7.62155 10.3737 7.44893 10.2584C7.27631 10.1431 7.14177 9.97913 7.06232 9.78732C6.98288 9.59552 6.96209 9.38446 7.00259 9.18084C7.04309 8.97722 7.14307 8.79018 7.28987 8.64338C7.43667 8.49658 7.62371 8.39661 7.82732 8.35611C8.03094 8.31561 8.242 8.33639 8.4338 8.41584C8.62561 8.49529 8.78955 8.62983 8.90489 8.80245C9.02023 8.97507 9.08179 9.17802 9.08179 9.38562C9.08179 9.66402 8.9712 9.93101 8.77435 10.1279C8.57749 10.3247 8.3105 10.4353 8.03211 10.4353ZM8.03211 9.15469C7.98332 9.15469 7.93563 9.16916 7.89506 9.19627C7.8545 9.22337 7.82288 9.26189 7.80421 9.30697C7.78554 9.35204 7.78065 9.40164 7.79017 9.44949C7.79969 9.49734 7.82318 9.5413 7.85768 9.57579C7.89218 9.61029 7.93613 9.63379 7.98398 9.6433C8.03183 9.65282 8.08143 9.64794 8.12651 9.62927C8.17158 9.6106 8.21011 9.57898 8.23721 9.53841C8.26432 9.49785 8.27878 9.45016 8.27878 9.40137C8.27878 9.33595 8.25279 9.2732 8.20653 9.22694C8.16027 9.18068 8.09753 9.15469 8.03211 9.15469Z" fill="white"/>
<path d="M8.03211 10.4353C7.8245 10.4353 7.62155 10.3737 7.44893 10.2584C7.27631 10.1431 7.14177 9.97913 7.06232 9.78732C6.98288 9.59552 6.96209 9.38446 7.00259 9.18084C7.04309 8.97722 7.14307 8.79018 7.28987 8.64338C7.43667 8.49658 7.62371 8.39661 7.82732 8.35611C8.03094 8.31561 8.242 8.33639 8.4338 8.41584C8.62561 8.49529 8.78955 8.62983 8.90489 8.80245C9.02023 8.97507 9.08179 9.17802 9.08179 9.38562C9.08179 9.66402 8.9712 9.93101 8.77435 10.1279C8.57749 10.3247 8.3105 10.4353 8.03211 10.4353ZM8.03211 9.15469C7.98332 9.15469 7.93563 9.16916 7.89506 9.19627C7.8545 9.22337 7.82288 9.26189 7.80421 9.30697C7.78554 9.35204 7.78065 9.40164 7.79017 9.44949C7.79969 9.49734 7.82318 9.5413 7.85768 9.57579C7.89218 9.61029 7.93613 9.63379 7.98398 9.6433C8.03183 9.65282 8.08143 9.64794 8.12651 9.62927C8.17158 9.6106 8.21011 9.57898 8.23721 9.53841C8.26432 9.49785 8.27878 9.45016 8.27878 9.40137C8.27878 9.33595 8.25279 9.2732 8.20653 9.22694C8.16027 9.18068 8.09753 9.15469 8.03211 9.15469Z" fill="white"/>
</svg>
