<svg width="20" height="20" viewBox="0 0 20 20" fill="none" xmlns="http://www.w3.org/2000/svg">
<path d="M10.834 4.16659C10.834 3.70635 10.4609 3.33325 10.0007 3.33325C9.54041 3.33325 9.16732 3.70635 9.16732 4.16659V9.16658H4.16732C3.70708 9.16658 3.33398 9.53968 3.33398 9.99992C3.33398 10.4602 3.70708 10.8333 4.16732 10.8333H9.16732V15.8333C9.16732 16.2935 9.54041 16.6666 10.0007 16.6666C10.4609 16.6666 10.834 16.2935 10.834 15.8333V10.8333H15.834C16.2942 10.8333 16.6673 10.4602 16.6673 9.99992C16.6673 9.53968 16.2942 9.16658 15.834 9.16658H10.834V4.16659Z" fill="white"/>
</svg>
