<svg width="106" height="37" viewBox="0 0 106 37" fill="none" xmlns="http://www.w3.org/2000/svg">
<g clip-path="url(#clip0_1632_406)">
<path d="M27.8143 10.6537C25.0354 10.275 22.2386 10.046 19.4357 9.96774C21.3602 7.97846 23.1759 5.88416 24.8747 3.69418C22.6642 5.33275 20.5422 7.09031 18.5179 8.9593C18.2943 3.71818 17.766 0 17.766 0C17.766 0 17.2377 3.71819 17.0176 8.95246C14.9893 7.08597 12.864 5.3307 10.6506 3.69418C12.3431 5.87469 14.152 7.95985 16.0693 9.94031C13.2696 9.96274 10.4756 10.1989 7.71094 10.6469C10.4619 11.0951 13.2424 11.3313 16.0286 11.3535C14.0762 13.2924 12.2779 15.3843 10.6506 17.6099C12.8658 16.0596 14.9604 14.3395 16.916 12.4648C16.8437 16.7027 17.1269 20.9392 17.7626 25.1286C18.3955 20.9412 18.6798 16.7073 18.6127 12.4717C20.5688 14.3472 22.6646 16.0673 24.8815 17.6168C23.247 15.3846 21.442 13.2858 19.4831 11.3398C22.2722 11.257 25.0553 11.028 27.8211 10.6537H27.8143Z" fill="white"/>
<path d="M31.3101 5.96826V10.5714C31.7048 10.1743 32.1702 9.85655 32.6817 9.63499C33.1823 9.422 33.7204 9.31463 34.2633 9.31943C34.8492 9.31049 35.4301 9.42824 35.9674 9.66485C36.5047 9.90145 36.986 10.2514 37.3791 10.6915C37.8117 11.1606 38.1482 11.712 38.3691 12.3137C38.59 12.9154 38.6909 13.5555 38.666 14.197C38.6836 14.8328 38.5751 15.4657 38.3471 16.0584C38.1191 16.651 37.7761 17.1914 37.3384 17.6476C36.9385 18.0863 36.4521 18.435 35.9108 18.6714C35.3694 18.9077 34.7851 19.0264 34.1956 19.0196C33.6812 19.0244 33.1707 18.9289 32.6919 18.7383C32.1792 18.5241 31.7106 18.2146 31.3101 17.826V18.8138H28.9395V5.96826H31.3101ZM33.779 11.4563C33.4367 11.4462 33.096 11.5074 32.7779 11.636C32.4598 11.7646 32.1712 11.958 31.9299 12.2041C31.6851 12.4637 31.4944 12.7707 31.3693 13.1066C31.2442 13.4425 31.1872 13.8005 31.2018 14.1592C31.1858 14.5243 31.2419 14.889 31.367 15.2318C31.492 15.5746 31.6834 15.8887 31.9299 16.1555C32.1699 16.4039 32.4581 16.5992 32.7764 16.7291C33.0947 16.859 33.4361 16.9206 33.779 16.9101C34.1169 16.9182 34.4526 16.8539 34.7643 16.7215C35.0759 16.5891 35.3564 16.3916 35.5875 16.1418C35.833 15.8786 36.0245 15.5689 36.1513 15.2304C36.278 14.8919 36.3373 14.5313 36.3258 14.1695C36.3386 13.8118 36.2812 13.4551 36.1568 13.12C36.0323 12.785 35.8435 12.4783 35.6011 12.2178C35.3691 11.9693 35.0884 11.7725 34.7769 11.6402C34.4655 11.5079 34.1302 11.4429 33.7926 11.4495L33.779 11.4563Z" fill="white"/>
<path d="M40.5869 9.5459H42.9575V14.005C42.9274 14.6125 42.9902 15.2211 43.1438 15.8092C43.2465 16.1302 43.4528 16.4069 43.7297 16.5947C44.0245 16.7912 44.3727 16.8896 44.7254 16.8759C45.0841 16.8904 45.4386 16.7934 45.7414 16.5981C46.0293 16.4052 46.2451 16.1202 46.3544 15.7886C46.4835 15.2269 46.5336 14.6495 46.5034 14.0736V9.5459H48.8741V13.4664C48.8741 15.0831 48.7454 16.1888 48.488 16.7833C48.189 17.4708 47.6905 18.0498 47.0588 18.4435C46.3452 18.8544 45.532 19.054 44.7118 19.0197C43.8275 19.0597 42.9528 18.82 42.2091 18.3337C41.5632 17.8702 41.0869 17.2032 40.8544 16.4369C40.6749 15.8778 40.5801 14.8556 40.5801 13.3738L40.5869 9.5459Z" fill="white"/>
<path d="M56.9294 10.863L55.4663 12.307C54.8703 11.7376 54.3318 11.4495 53.8475 11.4495C53.6278 11.4362 53.4096 11.4939 53.2244 11.6141C53.1617 11.6511 53.1084 11.7025 53.0689 11.7641C53.0293 11.8258 53.0046 11.8959 52.9967 11.969C52.9888 12.042 52.9979 12.1159 53.0234 12.1848C53.0488 12.2536 53.0898 12.3155 53.1431 12.3653C53.3519 12.5464 53.5887 12.6912 53.8441 12.7941L54.7111 13.216C55.4294 13.5121 56.0712 13.9709 56.5873 14.5571C56.9794 15.11 57.1546 15.7907 57.0788 16.467C57.0031 17.1434 56.6819 17.7671 56.1775 18.217C55.4865 18.7886 54.6097 19.0784 53.7188 19.0299C53.088 19.0508 52.4615 18.9178 51.8921 18.642C51.3227 18.3662 50.8271 17.9557 50.4473 17.4452L51.89 15.888C52.1661 16.2013 52.4967 16.4606 52.8654 16.6529C53.164 16.8312 53.5012 16.9325 53.8475 16.9479C54.1142 16.9617 54.3778 16.8844 54.596 16.7284C54.68 16.673 54.7498 16.598 54.7993 16.5096C54.8488 16.4213 54.8766 16.3222 54.8804 16.2207C54.8804 15.864 54.5418 15.521 53.8644 15.1917L53.072 14.8007C51.5479 14.0495 50.7927 13.1096 50.7927 11.9811C50.7895 11.6238 50.865 11.2703 51.0138 10.9463C51.1626 10.6223 51.381 10.336 51.6529 10.1083C52.2619 9.57906 53.0457 9.30219 53.8475 9.33315C54.445 9.33014 55.0351 9.46751 55.5713 9.73446C56.1046 9.99846 56.5696 10.3849 56.9294 10.863Z" fill="white"/>
<path d="M59.914 5.75218C60.1107 5.74979 60.3059 5.78743 60.488 5.86285C60.6701 5.93826 60.8353 6.04993 60.974 6.19124C61.1148 6.33018 61.2262 6.49673 61.3013 6.68073C61.3765 6.86473 61.4137 7.06232 61.4109 7.26141C61.4136 7.45865 61.3765 7.65436 61.302 7.83659C61.2275 8.01883 61.117 8.18375 60.9774 8.32129C60.7652 8.5309 60.4966 8.67232 60.2053 8.72777C59.9139 8.78322 59.6129 8.75022 59.3401 8.63293C59.0672 8.51565 58.8347 8.3193 58.6716 8.06856C58.5086 7.81782 58.4224 7.52388 58.4239 7.22367C58.4228 7.03092 58.461 6.84005 58.5362 6.66298C58.6114 6.4859 58.7219 6.32645 58.8607 6.19465C58.9979 6.05293 59.1618 5.9407 59.3428 5.86467C59.5238 5.78864 59.7181 5.75038 59.914 5.75218ZM58.7151 9.55269H61.0858V18.8138H58.7151V9.55269Z" fill="white"/>
<path d="M63.1948 9.54579H65.5655V10.5028C65.9966 10.1219 66.4833 9.81064 67.0082 9.58008C67.4304 9.40879 67.8809 9.32035 68.3358 9.31942C68.7719 9.31215 69.2049 9.39372 69.6093 9.55929C70.0136 9.72487 70.381 9.97107 70.6895 10.2833C71.228 10.8286 71.5023 11.6313 71.5023 12.6843V18.8001H69.1317V14.7595C69.1596 14.0234 69.1108 13.2865 68.986 12.5608C68.9093 12.2344 68.7269 11.9434 68.4679 11.7342C68.2057 11.5382 67.8858 11.4378 67.5602 11.4495C67.1142 11.4422 66.6834 11.6136 66.3613 11.9262C66.0031 12.2804 65.7587 12.7359 65.6603 13.2331C65.5702 13.8529 65.5374 14.4799 65.5621 15.1059V18.8207H63.1914L63.1948 9.54579Z" fill="white"/>
<path d="M83.146 14.8419H75.6072C75.6923 15.4559 76.0017 16.0152 76.4742 16.4094C76.9918 16.8103 77.6316 17.0154 78.2827 16.9891C79.1233 17.0018 79.9345 16.6761 80.5382 16.0836L82.5059 16.9994C82.0568 17.6578 81.448 18.1882 80.7381 18.5395C79.9689 18.8845 79.1337 19.052 78.2929 19.03C77.6353 19.0567 76.9791 18.9489 76.3635 18.7132C75.7478 18.4775 75.1854 18.1186 74.7097 17.658C74.2586 17.2135 73.9029 16.6793 73.6651 16.0891C73.4274 15.4988 73.3126 14.8652 73.328 14.2279C73.3102 13.5784 73.4235 12.9321 73.6607 12.3285C73.898 11.7248 74.2543 11.1765 74.7079 10.7171C75.1616 10.2577 75.7029 9.8968 76.2989 9.65649C76.8949 9.41618 77.5331 9.30152 78.1743 9.31949C78.841 9.28399 79.5075 9.39145 80.1303 9.63486C80.7531 9.87828 81.3181 10.2522 81.7884 10.732C82.2587 11.2119 82.6236 11.7869 82.8593 12.4195C83.095 13.0521 83.1962 13.7279 83.1561 14.4028L83.146 14.8419ZM80.7956 13.0239C80.6408 12.5158 80.3148 12.0788 79.8744 11.7891C79.4101 11.4648 78.8568 11.2968 78.2929 11.3089C77.6781 11.296 77.0753 11.4822 76.5724 11.8406C76.1942 12.1576 75.8988 12.564 75.7122 13.0239H80.7956Z" fill="white"/>
<path d="M90.8175 10.8629L89.3511 12.307C88.7584 11.7376 88.2199 11.4495 87.7357 11.4495C87.516 11.4366 87.298 11.4943 87.1125 11.6141C87.0432 11.657 86.9858 11.7168 86.9455 11.7882C86.9052 11.8596 86.8835 11.9401 86.8822 12.0223C86.8853 12.1514 86.9374 12.2743 87.0278 12.3653C87.2388 12.5467 87.478 12.6916 87.7357 12.7941L88.5993 13.216C89.317 13.5113 89.9579 13.9702 90.4721 14.5571C90.8161 15.0213 90.9962 15.589 90.9835 16.1692C90.9917 16.5599 90.9135 16.9474 90.7547 17.3035C90.5959 17.6596 90.3605 17.9752 90.0657 18.2273C89.3751 18.7997 88.498 19.0897 87.607 19.0402C86.9757 19.0608 86.3488 18.9277 85.7789 18.6519C85.209 18.3761 84.7128 17.9658 84.332 17.4555L85.7815 15.8983C86.0533 16.2134 86.3821 16.473 86.7501 16.6632C87.0501 16.8411 87.3884 16.9423 87.7357 16.9581C88.0023 16.9714 88.2657 16.8942 88.4841 16.7386C88.5678 16.6828 88.6372 16.6077 88.6867 16.5195C88.7361 16.4312 88.7642 16.3323 88.7686 16.231C88.7686 15.888 88.4299 15.545 87.7526 15.202L86.9635 14.8109C85.4417 14.0586 84.6809 13.1188 84.6809 11.9914C84.6809 11.6346 84.7579 11.2822 84.9065 10.9587C85.0551 10.6352 85.2717 10.3485 85.5411 10.1186C86.1517 9.58999 86.9363 9.31328 87.739 9.34341C88.3366 9.3404 88.9266 9.47779 89.4629 9.74474C89.9938 10.0062 90.4575 10.389 90.8175 10.8629Z" fill="white"/>
<path d="M98.5837 10.8629L97.1206 12.307C96.5246 11.7376 95.9861 11.4495 95.5018 11.4495C95.2811 11.4369 95.0621 11.4944 94.8753 11.6141C94.8072 11.6578 94.7511 11.718 94.7121 11.7893C94.673 11.8606 94.6523 11.9408 94.6517 12.0223C94.6517 12.0862 94.6643 12.1494 94.6887 12.2083C94.7132 12.2672 94.7489 12.3206 94.794 12.3653C95.0045 12.5439 95.241 12.6885 95.495 12.7941L96.3654 13.216C97.0832 13.5113 97.7241 13.9702 98.2382 14.5571C98.5837 15.0205 98.7639 15.5888 98.7496 16.1692C98.7585 16.56 98.6807 16.9478 98.5219 17.304C98.363 17.6602 98.1272 17.9757 97.8318 18.2273C97.1401 18.7976 96.2639 19.0874 95.3731 19.0402C94.7422 19.062 94.1153 18.9293 93.5458 18.6534C92.9763 18.3776 92.4809 17.9666 92.1016 17.4555L93.5477 15.8983C93.8195 16.2134 94.1482 16.473 94.5163 16.6632C94.8163 16.8411 95.1545 16.9423 95.5018 16.9581C95.7685 16.9714 96.0319 16.8942 96.2503 16.7386C96.3349 16.6839 96.4051 16.609 96.4547 16.5205C96.5043 16.4321 96.5318 16.3327 96.5347 16.231C96.5347 15.8742 96.1961 15.5312 95.5187 15.202L94.7229 14.8109C93.2056 14.0586 92.447 13.1188 92.447 11.9914C92.4437 11.6341 92.5193 11.2805 92.6681 10.9565C92.8169 10.6326 93.0353 10.3463 93.3072 10.1186C93.9153 9.58782 94.6997 9.31074 95.5018 9.34341C96.0994 9.34003 96.6895 9.47743 97.2256 9.74475C97.7578 10.0058 98.2227 10.3886 98.5837 10.8629Z" fill="white"/>
<path d="M8.07055 26.5726H10.6512V36.7359H8.0841V35.6657C7.6442 36.0991 7.13008 36.4478 6.56686 36.6947C6.04203 36.9097 5.48026 37.017 4.91416 37.0103C4.26582 37.0136 3.62401 36.8791 3.03015 36.6156C2.4363 36.3521 1.90362 35.9654 1.46651 35.4804C0.986971 34.9766 0.611478 34.381 0.362005 33.7284C0.112532 33.0759 -0.00590882 32.3795 0.0136156 31.68C-0.0398547 30.2551 0.465402 28.8666 1.41909 27.8177C1.85127 27.3357 2.37983 26.9525 2.96961 26.6934C3.55939 26.4344 4.19687 26.3055 4.83965 26.3153C5.43643 26.3137 6.02777 26.4302 6.58041 26.6583C7.1417 26.9014 7.65205 27.2506 8.0841 27.6874L8.07055 26.5726ZM5.3612 28.6306C4.99002 28.6205 4.62095 28.6902 4.27829 28.835C3.93562 28.9799 3.62716 29.1966 3.37321 29.471C3.1084 29.7592 2.90237 30.0976 2.76696 30.4666C2.63155 30.8357 2.56941 31.2282 2.58411 31.6216C2.55574 32.4288 2.84436 33.2145 3.38676 33.8066C3.64769 34.075 3.95873 34.2881 4.30177 34.4336C4.64481 34.5791 5.013 34.654 5.38491 34.654C5.75681 34.654 6.125 34.5791 6.46804 34.4336C6.81108 34.2881 7.12212 34.075 7.38305 33.8066C7.65473 33.5113 7.86563 33.1643 8.00344 32.7856C8.14125 32.4069 8.20321 32.0042 8.1857 31.601C8.20206 31.2047 8.13942 30.8091 8.00151 30.4379C7.86361 30.0666 7.65327 29.7273 7.38305 29.4401C7.11781 29.1702 6.79962 28.9596 6.44903 28.8219C6.09844 28.6843 5.72323 28.6226 5.34765 28.6409L5.3612 28.6306Z" fill="white"/>
<path d="M13.2344 26.5726H15.8523V31.4776C15.8198 32.1483 15.8872 32.8201 16.0521 33.4705C16.1708 33.8204 16.3961 34.123 16.6956 34.3348C17.0191 34.5457 17.3982 34.6522 17.7827 34.6401C18.1725 34.6516 18.5568 34.5453 18.8868 34.3348C19.2016 34.1208 19.4392 33.809 19.5641 33.4465C19.7093 32.8302 19.7652 32.1959 19.73 31.5634V26.5726H22.3005V30.8842C22.3005 32.6576 22.1617 33.8684 21.8738 34.5269C21.5617 35.2833 21.0272 35.924 20.343 36.362C19.5589 36.8158 18.6649 37.038 17.7624 37.0034C16.7942 37.0474 15.8366 36.7849 15.0225 36.2522C14.3163 35.7437 13.7978 35.011 13.5493 34.1702C13.3461 33.5528 13.2445 32.438 13.2445 30.8019L13.2344 26.5726Z" fill="white"/>
<path d="M25.17 22.8304H27.7439V26.5726H29.2781V28.761H27.7541V36.7359H25.1802V28.761H23.8594V26.5726H25.1768L25.17 22.8304Z" fill="white"/>
<path d="M35.5036 26.3085C36.4626 26.3047 37.4063 26.5516 38.2434 27.0254C39.0742 27.4797 39.7673 28.1543 40.2483 28.9771C40.7243 29.7822 40.9737 30.7039 40.9697 31.6423C40.9718 32.5906 40.7214 33.5219 40.2449 34.3383C39.7745 35.1608 39.0904 35.837 38.2671 36.2934C37.425 36.7693 36.4747 37.0141 35.5103 37.0034C34.8082 37.0156 34.1109 36.8839 33.4602 36.6163C32.8096 36.3487 32.219 35.9507 31.724 35.4462C31.2118 34.9358 30.8088 34.3241 30.5401 33.6492C30.2714 32.9742 30.1427 32.2505 30.1621 31.523C30.1814 30.7955 30.3485 30.0799 30.6527 29.4206C30.957 28.7613 31.392 28.1725 31.9306 27.6908C32.9076 26.7914 34.1833 26.2978 35.5036 26.3085ZM35.5476 28.7096C35.1733 28.6994 34.801 28.7679 34.4542 28.9108C34.1074 29.0536 33.7935 29.2678 33.5325 29.5396C33.2662 29.8211 33.058 30.1536 32.9202 30.5176C32.7824 30.8816 32.7177 31.2698 32.7299 31.6594C32.7137 32.0541 32.7758 32.4481 32.9125 32.818C33.0492 33.188 33.2577 33.5265 33.5257 33.8135C33.7853 34.0862 34.0984 34.3007 34.445 34.4431C34.7915 34.5854 35.1637 34.6526 35.5374 34.6401C35.9147 34.6512 36.29 34.5828 36.6398 34.4394C36.9896 34.2959 37.3062 34.0804 37.5695 33.8066C38.0863 33.2172 38.3717 32.4563 38.3717 31.668C38.3717 30.8797 38.0863 30.1188 37.5695 29.5293C37.3077 29.2566 36.9927 29.042 36.6447 28.8991C36.2966 28.7562 35.923 28.6882 35.5476 28.6993V28.7096Z" fill="white"/>
<path d="M43.0508 26.5726H45.6213V27.7422C46.036 27.2828 46.5398 26.915 47.1013 26.6618C47.6609 26.4253 48.2628 26.3086 48.8691 26.3188C49.4891 26.3049 50.1001 26.471 50.6299 26.7974C51.1598 27.1237 51.5865 27.5968 51.8596 28.1607C52.2412 27.5791 52.7616 27.1044 53.3726 26.7806C53.9835 26.4569 54.6652 26.2944 55.3546 26.3085C56.032 26.2955 56.7003 26.4686 57.2884 26.8092C57.8118 27.1136 58.2303 27.5733 58.4873 28.1264C58.7345 28.6718 58.8531 29.5533 58.8531 30.7744V36.7358H56.2792V31.5907C56.2792 30.4417 56.137 29.6596 55.8457 29.2514C55.6904 29.0479 55.4881 28.8861 55.2566 28.7802C55.0252 28.6744 54.7716 28.6277 54.5181 28.6443C54.0902 28.6388 53.6712 28.7683 53.3192 29.0148C52.9586 29.269 52.6824 29.6277 52.5267 30.0438C52.3208 30.7265 52.2337 31.4403 52.2694 32.1533V36.7358H49.6955V31.8206C49.723 31.1553 49.6534 30.4895 49.4889 29.8448C49.3836 29.4834 49.1678 29.1652 48.8725 28.9359C48.5812 28.733 48.2335 28.6297 47.8802 28.6409C47.4556 28.6361 47.0404 28.7683 46.6949 29.0182C46.3327 29.2848 46.0559 29.6534 45.899 30.0781C45.6909 30.7721 45.6027 31.4974 45.6382 32.2219V36.7358H43.0677L43.0508 26.5726Z" fill="white"/>
<path d="M68.8575 26.5727H71.428V36.7359H68.8575V35.6657C68.4182 36.0999 67.904 36.4487 67.3403 36.6947C66.8165 36.9091 66.2559 37.0164 65.691 37.0103C65.0426 37.0138 64.4007 36.8795 63.8068 36.616C63.213 36.3525 62.6803 35.9656 62.2433 35.4805C61.7627 34.9773 61.3863 34.3819 61.1362 33.7292C60.8861 33.0765 60.7674 32.3798 60.7871 31.68C60.7336 30.2551 61.2388 28.8667 62.1925 27.8178C62.6251 27.3363 63.1538 26.9534 63.7434 26.6944C64.3331 26.4354 64.9704 26.3062 65.6131 26.3154C66.211 26.3137 66.8034 26.4303 67.3572 26.6584C67.9175 26.9015 68.4267 27.2508 68.8575 27.6874V26.5727ZM66.1482 28.6307C65.7769 28.6201 65.4077 28.6896 65.065 28.8345C64.7223 28.9793 64.4139 29.1963 64.1602 29.4711C63.6257 30.0537 63.3408 30.8269 63.3677 31.6217C63.354 32.0219 63.4185 32.4209 63.5574 32.7959C63.6963 33.1708 63.9069 33.5143 64.1771 33.8066C64.4291 34.0826 64.7359 34.3014 65.0774 34.4486C65.4189 34.5958 65.7873 34.6681 66.1583 34.6607C66.5332 34.6719 66.9061 34.6028 67.2527 34.4579C67.5994 34.3131 67.912 34.0959 68.17 33.8204C68.4423 33.5256 68.6537 33.1786 68.7915 32.7998C68.9293 32.421 68.9909 32.0181 68.9727 31.6148C68.9898 31.2184 68.9275 30.8226 68.7896 30.4512C68.6517 30.0798 68.4409 29.7406 68.17 29.4539C67.9056 29.1829 67.5884 28.9707 67.2385 28.8308C66.8887 28.6908 66.5139 28.6262 66.138 28.641L66.1482 28.6307Z" fill="white"/>
<path d="M74.3409 22.8304H76.9114V26.5726H78.4388V28.761H76.9114V36.7359H74.3409V28.761H73.0234V26.5726H74.3409V22.8304Z" fill="white"/>
<path d="M80.8411 22.3982C81.0571 22.3957 81.2715 22.4375 81.4712 22.5212C81.6708 22.605 81.8516 22.7288 82.0027 22.8853C82.2307 23.1145 82.3865 23.4071 82.4501 23.726C82.5137 24.0449 82.4825 24.3758 82.3602 24.6767C82.238 24.9776 82.0303 25.235 81.7634 25.4162C81.4966 25.5974 81.1826 25.6942 80.8614 25.6945C80.6437 25.6975 80.4278 25.6559 80.2264 25.5722C80.025 25.4885 79.8424 25.3644 79.6896 25.2074C79.5331 25.0537 79.4093 24.869 79.326 24.6649C79.2427 24.4607 79.2016 24.2415 79.2053 24.0207C79.2019 23.8062 79.2429 23.5935 79.3258 23.3962C79.4086 23.1988 79.5314 23.0213 79.6862 22.875C79.8372 22.721 80.0173 22.5995 80.2157 22.5176C80.4141 22.4357 80.6268 22.3951 80.8411 22.3982ZM79.5575 26.5726H82.1314V36.7359H79.5575V26.5726Z" fill="white"/>
<path d="M89.3135 26.3085C90.2727 26.3034 91.2167 26.5504 92.0534 27.0254C92.8844 27.4806 93.5784 28.155 94.0617 28.9771C94.4106 29.587 94.6362 30.261 94.7254 30.96C94.8146 31.659 94.7655 32.369 94.5811 33.0487C94.3968 33.7283 94.0807 34.364 93.6514 34.9187C93.2221 35.4734 92.6881 35.936 92.0805 36.2797C91.2383 36.7556 90.288 37.0004 89.3237 36.9897C88.6216 37.0015 87.9244 36.8696 87.2738 36.6021C86.6232 36.3345 86.0326 35.9367 85.5374 35.4325C85.0241 34.9228 84.62 34.3115 84.3504 33.6366C84.0808 32.9617 83.9515 32.2377 83.9706 31.51C83.9897 30.7822 84.1567 30.0662 84.4612 29.4067C84.7658 28.7473 85.2013 28.1585 85.7406 27.6771C86.7198 26.7829 87.9952 26.2944 89.3135 26.3085ZM89.361 28.7096C88.9839 28.697 88.6083 28.7643 88.2584 28.9073C87.9085 29.0502 87.5919 29.2656 87.329 29.5396C87.0612 29.8201 86.8521 30.1524 86.7142 30.5166C86.5763 30.8809 86.5124 31.2696 86.5263 31.6594C86.5089 32.054 86.5701 32.448 86.7063 32.8181C86.8424 33.1881 87.0508 33.5267 87.3188 33.8135C87.5788 34.0864 87.8926 34.3011 88.2397 34.4435C88.5868 34.5859 88.9596 34.6528 89.3339 34.6401C89.711 34.6508 90.0863 34.5822 90.436 34.4388C90.7857 34.2953 91.1023 34.0801 91.3659 33.8066C91.6356 33.5217 91.8463 33.1848 91.9853 32.816C92.1243 32.4472 92.1889 32.054 92.1753 31.6594C92.1904 31.2685 92.1277 30.8784 91.9909 30.5125C91.8542 30.1466 91.6463 29.8123 91.3794 29.5294C91.1173 29.2581 90.8028 29.0444 90.4555 28.9015C90.1082 28.7587 89.7357 28.6899 89.361 28.6993V28.7096Z" fill="white"/>
<path d="M96.8667 26.5727H99.4372V27.6017C99.9146 27.1791 100.452 26.8322 101.032 26.5727C101.499 26.3854 101.997 26.2888 102.499 26.288C102.98 26.2774 103.459 26.3656 103.906 26.5471C104.353 26.7287 104.759 26.9999 105.1 27.3444C105.703 27.9412 106.001 28.8262 106.001 29.9958V36.7153H103.447V32.2563C103.48 31.4452 103.423 30.6329 103.278 29.8346C103.191 29.4741 102.987 29.1538 102.699 28.9257C102.403 28.7106 102.046 28.6008 101.683 28.6135C101.182 28.6023 100.696 28.788 100.328 29.1315C99.9303 29.518 99.6585 30.0182 99.5489 30.5652C99.4486 31.2463 99.4101 31.9351 99.4338 32.6233V36.705H96.8633L96.8667 26.5727Z" fill="white"/>
</g>
<defs>
<clipPath id="clip0_1632_406">
<rect width="106" height="37" fill="white"/>
</clipPath>
</defs>
</svg>
